<?xml version="1.0" encoding="UTF-8"?><svg id="a" xmlns="http://www.w3.org/2000/svg" viewBox="0 0 776.56 600.28"><defs><style>*{background-color:white};.b{fill:#1d1d1b;}</style></defs><path class="b" d="M106.44,137.34c-.27-1.31-.45-3.2-.54-5.64-2.89,4.01-7.76,6.54-13.67,6.54-8.3,.09-15.29-5.46-15.15-13.58,0-4.69,1.58-8.3,4.74-10.82,3.16-2.53,7.22-3.97,12.18-4.38l11.64-1.04v-1.13c0-4.15-2.98-7.35-7.4-7.35h-.77c-4.33,0-7.17,2.71-7.44,5.5h-12.04c.86-8.7,8.61-15.29,19.89-15.2,11.64,0,19.39,5.95,19.39,16.6v20.34c0,4.6,.14,7.98,.45,10.15h-11.28Zm-.81-20.16l-10.01,1.04c-1.76,.14-3.34,.68-4.69,1.62-1.35,.95-2.03,2.26-2.03,4.01,0,2.84,2.44,4.69,5.73,4.69h.72c5.46,0,10.28-4.24,10.28-10.06v-1.31Z"/><g><path class="b" d="M607.46,288.92c6.22,0,11.37,3.52,13.31,6.9v-24.49h12.04v64.68h-12.04v-6c-1.94,3.38-7.08,6.9-13.31,6.9-12.85,.23-20.61-11.37-20.48-23.99-.14-12.63,7.62-24.22,20.48-23.99Zm2.8,38.29c5.55,.14,10.64-5.82,10.51-14.3,.14-8.48-4.96-14.43-10.51-14.3h-.72c-6.04,0-10.55,5.55-10.55,14.21s4.51,14.39,10.55,14.39h.72Z"/><path class="b" d="M678.42,288.92c13.49-.14,21.2,9.97,21.06,23.45,0,.9-.05,2.35-.18,4.33h-31.21c.45,6.18,5.41,10.51,10.42,10.51h.77c4.33,0,7.26-2.44,8.12-5.82h11.91c-2.26,9.2-9.56,15.52-20.88,15.52-11.59,.18-22.19-9.25-21.97-23.99-.14-13.8,8.43-24.18,21.97-23.99Zm9.43,18.54c-.27-5.46-4.47-8.84-9.52-8.84h-.72c-5.05,0-9.25,3.38-9.52,8.84h19.76Z"/></g><g><path class="b" d="M279.86,517.92c-.27-1.31-.45-3.2-.54-5.64-2.89,4.01-7.76,6.54-13.67,6.54-8.3,.09-15.29-5.46-15.15-13.58,0-4.69,1.58-8.3,4.74-10.82,3.16-2.53,7.22-3.97,12.18-4.38l11.64-1.04v-1.13c0-4.15-2.98-7.35-7.4-7.35h-.77c-4.33,0-7.17,2.71-7.44,5.5h-12.04c.86-8.7,8.61-15.29,19.89-15.2,11.64,0,19.39,5.95,19.39,16.6v20.34c0,4.6,.14,7.98,.45,10.15h-11.28Zm-.81-20.16l-10.01,1.04c-1.76,.14-3.34,.68-4.69,1.62-1.35,.95-2.03,2.26-2.03,4.01,0,2.84,2.44,4.69,5.73,4.69h.72c5.46,0,10.28-4.24,10.28-10.06v-1.31Z"/><path class="b" d="M316.54,453.24h12v64.68h-12v-64.68Z"/><path class="b" d="M354.8,471.74h12v6.54c3.11-5.01,8.25-7.44,13.8-7.44,6.54,0,11.59,2.71,14.12,7.94,3.38-5.37,9.07-7.94,15.24-7.94,5.68,0,9.83,1.62,12.45,4.92,2.66,3.25,3.97,7.62,3.97,13.08v29.09h-12v-27.69c0-6.13-2.21-9.25-7.13-9.25h-.72c-5.55,0-9.88,4.83-9.88,11.28v25.66h-12v-27.69c0-6.13-2.3-9.25-7.22-9.25h-.72c-5.55,0-9.92,4.83-9.92,11.28v25.66h-12v-46.19Z"/><path class="b" d="M478.84,517.92c-.27-1.31-.45-3.2-.54-5.64-2.89,4.01-7.76,6.54-13.67,6.54-8.3,.09-15.29-5.46-15.15-13.58,0-4.69,1.58-8.3,4.74-10.82,3.16-2.53,7.22-3.97,12.18-4.38l11.64-1.04v-1.13c0-4.15-2.98-7.35-7.4-7.35h-.77c-4.33,0-7.17,2.71-7.44,5.5h-12.04c.86-8.7,8.61-15.29,19.89-15.2,11.64,0,19.39,5.95,19.39,16.6v20.34c0,4.6,.14,7.98,.45,10.15h-11.28Zm-.81-20.16l-10.01,1.04c-1.76,.14-3.34,.68-4.69,1.62-1.35,.95-2.03,2.26-2.03,4.01,0,2.84,2.44,4.69,5.73,4.69h.72c5.46,0,10.28-4.24,10.28-10.06v-1.31Z"/></g></svg>