<?xml version="1.0" encoding="UTF-8"?><svg xmlns="http://www.w3.org/2000/svg" viewBox="0 0 165.05 157.18"><g id="a"/><g id="b"><g id="c"><path d="M14.26,74.67h2.25c47.46,0,94.92,0,142.38,0,.77,0,1.55-.02,2.32,.04,2.19,.17,3.84,1.95,3.84,4.09,0,2.07-1.57,3.84-3.66,4.06-.9,.1-1.8,.08-2.71,.08-47.2,0-94.4,0-141.6,0h-2.85c.74,.81,1.2,1.35,1.7,1.85,21.27,21.28,42.55,42.56,63.82,63.85,.64,.64,1.3,1.27,1.82,2,1.19,1.67,.96,3.9-.46,5.31-1.45,1.44-3.59,1.65-5.3,.46-.58-.4-1.07-.93-1.57-1.44C50.33,131.04,26.41,107.12,2.48,83.19c-3.29-3.29-3.31-5.87-.07-9.11C26.43,50.05,50.45,26.03,74.46,2.01c1.38-1.38,2.81-2.5,4.94-1.79,2.79,.93,3.85,4.02,2.14,6.4-.49,.68-1.11,1.26-1.7,1.85C58.47,29.85,37.1,51.22,15.72,72.58c-.54,.54-1.24,.94-1.86,1.4l.39,.69Z"/></g></g></svg>