<?xml version="1.0" encoding="UTF-8"?><svg id="a" xmlns="http://www.w3.org/2000/svg" viewBox="0 0 177.92 103.72"><defs><style>.b{fill:#000;}</style></defs><path class="b" d="M32.39,27.82c9.84,0,17.98,5.56,21.04,10.91V0h19.05V102.29h-19.05v-9.49c-3.07,5.35-11.2,10.91-21.04,10.91C12.06,104.07-.21,85.74,0,65.77-.21,45.79,12.06,27.46,32.39,27.82Zm4.42,60.56c8.77,.21,16.83-9.2,16.62-22.61,.21-13.41-7.85-22.83-16.62-22.61h-1.14c-9.56,0-16.69,8.77-16.69,22.47s7.13,22.76,16.69,22.76h1.14Z"/><path class="b" d="M144.61,27.82c21.33-.21,33.53,15.76,33.31,37.09,0,1.43-.07,3.71-.29,6.85h-49.36c.71,9.77,8.56,16.62,16.48,16.62h1.21c6.85,0,11.48-3.85,12.84-9.2h18.83c-3.57,14.55-15.12,24.54-33.03,24.54-18.33,.29-35.1-14.62-34.74-37.95-.21-21.83,13.34-38.23,34.74-37.95Zm14.91,29.32c-.43-8.63-7.06-13.98-15.05-13.98h-1.14c-7.99,0-14.62,5.35-15.05,13.98h31.24Z"/></svg>