<svg xmlns="http://www.w3.org/2000/svg" viewBox="0 0 64.28 103.72">
  <path d="M46.44 102.29c-.43-2.07-.71-5.06-.86-8.92-4.57 6.35-12.27 10.34-21.61 10.34C10.85 103.86-.21 95.09 0 82.25c0-7.42 2.5-13.13 7.49-17.12s11.41-6.28 19.26-6.92l18.4-1.64v-1.78c0-6.56-4.71-11.63-11.7-11.63h-1.21c-6.85 0-11.34 4.28-11.77 8.7H1.43c1.36-13.77 13.62-24.18 31.46-24.04 18.4 0 30.67 9.42 30.67 26.25v32.17c0 7.28.21 12.63.71 16.05H46.44ZM45.16 70.4l-15.84 1.64c-2.78.21-5.28 1.07-7.42 2.57-2.14 1.5-3.21 3.57-3.21 6.35 0 4.49 3.85 7.42 9.06 7.42h1.14c8.63 0 16.26-6.71 16.26-15.91V70.4Z"/>
</svg>
