<svg xmlns="http://www.w3.org/2000/svg" fill="currentColor" viewBox="0 0 165.05 157.18">
  <path d="M14.26 74.67h144.63c.77 0 1.55-.02 2.32.04 2.19.17 3.84 1.95 3.84 4.09 0 2.07-1.57 3.84-3.66 4.06-.9.1-1.8.08-2.71.08H14.23c.74.81 1.2 1.35 1.7 1.85 21.27 21.28 42.55 42.56 63.82 63.85.64.64 1.3 1.27 1.82 2 1.19 1.67.96 3.9-.46 5.31-1.45 1.44-3.59 1.65-5.3.46-.58-.4-1.07-.93-1.57-1.44-23.91-23.93-47.83-47.85-71.76-71.78-3.29-3.29-3.31-5.87-.07-9.11C26.43 50.05 50.45 26.03 74.46 2.01 75.84.63 77.27-.49 79.4.22c2.79.93 3.85 4.02 2.14 6.4-.49.68-1.11 1.26-1.7 1.85C58.47 29.85 37.1 51.22 15.72 72.58c-.54.54-1.24.94-1.86 1.4l.39.69Z"/>
</svg>
